<svg width="58" height="44" viewBox="0 0 58 44" fill="none" xmlns="http://www.w3.org/2000/svg">
<path d="M24.0488 31.739C23.7541 33.3945 23.2825 34.9724 22.6341 36.4727C21.9858 37.9212 21.19 39.2146 20.247 40.3527C19.3039 41.4909 18.2724 42.3962 17.1524 43.0688C16.0915 43.6896 15.001 44 13.8811 44C11.7591 44 9.57825 43.7155 7.33841 43.1464C5.15752 42.5773 3.44817 41.6202 2.21037 40.2751C1.85671 39.8095 1.50305 39.2663 1.14939 38.6455C0.795732 38.0247 0.530488 37.2745 0.353659 36.3951C0.176829 35.5156 0.0589431 34.455 0 33.2134C0 31.9718 0.147358 30.5232 0.442073 28.8677C0.795732 26.4879 1.35569 24.1858 2.12195 21.9612C2.88821 19.7366 4.06707 17.4603 5.65854 15.1323C7.30894 12.8042 9.46037 10.4245 12.1128 7.99295C14.8242 5.5097 18.2724 2.84539 22.4573 0L27.0549 5.6649C21.8679 9.07936 18.1545 12.1058 15.9146 14.7443C13.7337 17.331 12.4959 19.6073 12.2012 21.5732C12.0833 22.5044 12.4075 23.2287 13.1738 23.746C13.94 24.2634 14.9421 24.6772 16.1799 24.9877C18.7734 25.5567 20.7774 26.4621 22.1921 27.7037C23.6656 28.8936 24.2846 30.2387 24.0488 31.739ZM54.9939 31.739C54.6992 33.3945 54.2276 34.9724 53.5793 36.4727C52.9309 37.9212 52.1352 39.2146 51.1921 40.3527C50.249 41.4909 49.2175 42.3962 48.0976 43.0688C47.0366 43.6896 45.9461 44 44.8262 44C42.7043 44 40.5234 43.7155 38.2835 43.1464C36.1026 42.5773 34.3933 41.6202 33.1555 40.2751C32.8018 39.8095 32.4482 39.2663 32.0945 38.6455C31.7409 38.0247 31.4756 37.2745 31.2988 36.3951C31.122 35.5156 31.0041 34.455 30.9451 33.2134C30.9451 31.9718 31.0925 30.5232 31.3872 28.8677C31.7409 26.4879 32.3008 24.1858 33.0671 21.9612C33.8333 19.7366 35.0122 17.4603 36.6037 15.1323C38.2541 12.8042 40.4055 10.4245 43.0579 7.99295C45.7693 5.5097 49.2175 2.84539 53.4024 0L58 5.6649C52.813 9.07936 49.0996 12.1058 46.8598 14.7443C44.6789 17.331 43.4411 19.6073 43.1463 21.5732C43.0285 22.5044 43.3526 23.2287 44.1189 23.746C44.8852 24.2634 45.8872 24.6772 47.125 24.9877C49.7185 25.5567 51.7226 26.4621 53.1372 27.7037C54.6108 28.8936 55.2297 30.2387 54.9939 31.739Z" fill="black"/>
</svg>
